<?xml version="1.0" encoding="UTF-8"?>
<!DOCTYPE svg PUBLIC "-//W3C//DTD SVG 1.1//EN" "http://www.w3.org/Graphics/SVG/1.1/DTD/svg11.dtd">
<!-- Creator: CorelDRAW 2020 (64 Bit) -->
<svg xmlns="http://www.w3.org/2000/svg" xml:space="preserve" width="50px" height="50px" version="1.1" style="shape-rendering:geometricPrecision; text-rendering:geometricPrecision; image-rendering:optimizeQuality; fill-rule:evenodd; clip-rule:evenodd"
viewBox="0 0 50 50"
 xmlns:xlink="http://www.w3.org/1999/xlink"
 xmlns:xodm="http://www.corel.com/coreldraw/odm/2003">
 <defs>
  <style type="text/css">
   <![CDATA[
    .fil0 {fill:black;fill-rule:nonzero}
    .fil1 {fill:black;fill-rule:nonzero}
   ]]>
  </style>
 </defs>
 <g id="Camada_x0020_1">
  <metadata id="CorelCorpID_0Corel-Layer"/>
  <path class="fil0" d="M14.47 5.22l23.2 0c1.18,0 2.25,0.48 3.02,1.26l0 0c0.78,0.78 1.26,1.85 1.26,3.03l0 30.98c0,1.18 -0.48,2.25 -1.26,3.03l0 0c-0.77,0.78 -1.84,1.26 -3.02,1.26l-23.2 0c-1.18,0 -2.25,-0.48 -3.03,-1.26l0 0c-0.77,-0.78 -1.26,-1.85 -1.26,-3.03l0 -3.48 -1.48 0c-0.48,0 -0.87,-0.39 -0.87,-0.87l0 0c0,-0.48 0.39,-0.88 0.87,-0.88l1.48 0 0 -2.23 -1.48 0c-0.48,0 -0.87,-0.39 -0.87,-0.87l0 0c0,-0.48 0.39,-0.87 0.87,-0.87l1.48 0 0 -3.5 -1.48 0c-0.48,0 -0.87,-0.4 -0.87,-0.88l0 0c0,-0.48 0.39,-0.87 0.87,-0.87l1.48 0 0 -2.08 -1.48 0c-0.48,0 -0.87,-0.39 -0.87,-0.87l0 0c0,-0.48 0.39,-0.88 0.87,-0.88l1.48 0 0 -3.65 -1.48 0c-0.48,0 -0.87,-0.39 -0.87,-0.87l0 0c0,-0.48 0.39,-0.88 0.87,-0.88l1.48 0 0 -2.07 -1.48 0c-0.48,0 -0.87,-0.4 -0.87,-0.88l0 0c0,-0.48 0.39,-0.87 0.87,-0.87l1.48 0 0 -3.48c0,-1.18 0.49,-2.25 1.26,-3.03l0 0c0.78,-0.78 1.85,-1.26 3.03,-1.26zm22.62 1.6l0 5.44 -1.67 -0.97 -1.92 0.97 0 -5.44 -19.03 0c-0.74,0 -1.41,0.31 -1.89,0.79l-0.01 0c-0.48,0.49 -0.78,1.16 -0.78,1.9l0 3.48 1.33 0c0.03,0 0.06,0 0.09,0 0.18,-0.13 0.42,-0.21 0.67,-0.21 0.62,0 1.13,0.48 1.13,1.08 0,0.6 -0.51,1.09 -1.13,1.09 -0.25,0 -0.49,-0.08 -0.67,-0.22 -0.03,0.01 -0.06,0.01 -0.09,0.01l-1.33 0 0 2.07 1.33 0c0.03,0 0.06,0 0.09,0.01 0.18,-0.14 0.42,-0.22 0.67,-0.22 0.62,0 1.13,0.49 1.13,1.09 0,0.6 -0.51,1.08 -1.13,1.08 -0.25,0 -0.49,-0.08 -0.67,-0.21 -0.03,0 -0.06,0 -0.09,0l-1.33 0 0 3.65 1.33 0c0.03,0 0.06,0.01 0.09,0.01 0.18,-0.14 0.42,-0.22 0.67,-0.22 0.62,0 1.13,0.49 1.13,1.09 0,0.6 -0.51,1.09 -1.13,1.09 -0.25,0 -0.49,-0.09 -0.67,-0.22 -0.03,0 -0.06,0 -0.09,0l-1.33 0 0 2.08 1.33 0c0.03,0 0.06,0 0.09,0 0.18,-0.14 0.42,-0.22 0.67,-0.22 0.62,0 1.13,0.49 1.13,1.09 0,0.6 -0.51,1.09 -1.13,1.09 -0.25,0 -0.49,-0.08 -0.67,-0.22 -0.03,0 -0.06,0.01 -0.09,0.01l-1.33 0 0 3.5 1.33 0c0.03,0 0.06,0 0.09,0 0.18,-0.14 0.42,-0.22 0.67,-0.22 0.62,0 1.13,0.49 1.13,1.09 0,0.6 -0.51,1.09 -1.13,1.09 -0.25,0 -0.49,-0.08 -0.67,-0.22 -0.03,0 -0.06,0 -0.09,0l-1.33 0 0 2.23 1.33 0c0.03,0 0.06,0 0.09,0.01 0.18,-0.14 0.42,-0.22 0.67,-0.22 0.62,0 1.13,0.49 1.13,1.09 0,0.6 -0.51,1.08 -1.13,1.08 -0.25,0 -0.49,-0.08 -0.67,-0.21 -0.03,0 -0.06,0 -0.09,0l-1.33 0 0 3.48c0,0.74 0.3,1.41 0.78,1.9l0.01 0c0.48,0.48 1.15,0.78 1.89,0.78l23.2 0c0.73,0 1.4,-0.3 1.89,-0.78l0 0c0.49,-0.49 0.79,-1.16 0.79,-1.9l0 -30.98c0,-0.74 -0.3,-1.41 -0.79,-1.9l0 0c-0.49,-0.48 -1.16,-0.79 -1.89,-0.79l-0.58 0z"/>
  <path class="fil1" d="M26.87 19.35c0.77,0 1.46,0.32 1.97,0.82 0.5,0.51 0.82,1.2 0.82,1.98 0,0.77 -0.32,1.46 -0.82,1.97 -0.51,0.5 -1.2,0.82 -1.97,0.82 -0.77,0 -1.47,-0.32 -1.98,-0.82 -0.5,-0.51 -0.81,-1.2 -0.81,-1.97 0,-0.78 0.31,-1.47 0.81,-1.98 0.51,-0.5 1.21,-0.82 1.98,-0.82zm0 -3.34c2.48,0 4.72,1.01 6.35,2.64 1.63,1.62 2.63,3.87 2.63,6.35 0,2.48 -1,4.73 -2.63,6.35 -1.63,1.63 -3.87,2.64 -6.35,2.64 -2.49,0 -4.73,-1.01 -6.36,-2.64 -1.62,-1.62 -2.63,-3.87 -2.63,-6.35 0,-2.48 1.01,-4.73 2.63,-6.35 1.63,-1.63 3.87,-2.64 6.36,-2.64zm5.41 3.58c-1.39,-1.38 -3.3,-2.24 -5.41,-2.24 -2.12,0 -4.03,0.86 -5.42,2.24 -1.38,1.38 -2.24,3.3 -2.24,5.41 0,1.95 0.73,3.72 1.93,5.07 0.16,-1.29 0.76,-2.45 1.64,-3.33 1.05,-1.04 2.49,-1.68 4.09,-1.68 1.59,0 3.03,0.64 4.08,1.68 0.88,0.88 1.48,2.04 1.64,3.33 1.2,-1.35 1.93,-3.12 1.93,-5.07 0,-2.11 -0.86,-4.03 -2.24,-5.41zm-10.48 11.15c1.35,1.19 3.12,1.91 5.07,1.91 1.94,0 3.71,-0.72 5.06,-1.91 -0.02,-1.37 -0.58,-2.6 -1.48,-3.5 -0.92,-0.91 -2.19,-1.47 -3.58,-1.47 -1.4,0 -2.67,0.56 -3.59,1.47 -0.9,0.9 -1.46,2.13 -1.48,3.5zm6.53 -10.06c-0.37,-0.38 -0.89,-0.61 -1.46,-0.61 -0.58,0 -1.1,0.23 -1.47,0.61 -0.38,0.37 -0.61,0.89 -0.61,1.47 0,0.57 0.23,1.09 0.61,1.46 0.37,0.38 0.89,0.61 1.47,0.61 0.57,0 1.09,-0.23 1.46,-0.61 0.38,-0.37 0.61,-0.89 0.61,-1.46 0,-0.58 -0.23,-1.1 -0.61,-1.47z"/>
 </g>
</svg>
