<?xml version="1.0" encoding="UTF-8"?>
<!DOCTYPE svg PUBLIC "-//W3C//DTD SVG 1.1//EN" "http://www.w3.org/Graphics/SVG/1.1/DTD/svg11.dtd">
<!-- Creator: CorelDRAW 2021 (64 Bit) -->
<svg xmlns="http://www.w3.org/2000/svg" xml:space="preserve" width="200px" height="50px" version="1.1" style="shape-rendering:geometricPrecision; text-rendering:geometricPrecision; image-rendering:optimizeQuality; fill-rule:evenodd; clip-rule:evenodd"
viewBox="0 0 200 50"
 xmlns:xlink="http://www.w3.org/1999/xlink"
 xmlns:xodm="http://www.corel.com/coreldraw/odm/2003">
 <defs>
  <style type="text/css">
   <![CDATA[
    .fil0 {fill:#C2D9FF}
    .fil2 {fill:white}
    .fil1 {fill:white}
   ]]>
  </style>
 </defs>
 <g id="Camada_x0020_1">
  <metadata id="CorelCorpID_0Corel-Layer"/>
  <g id="_2186486663840">
   <path class="fill-light-blue" d="M110.2 16.51c1.84,0 2.63,0.27 4.12,1.15 0.42,0.24 0.83,0.51 1.21,0.81 -0.2,-0.42 -0.58,-0.96 -1.03,-1.18l0.35 -0.69 3.45 0 0 5.91 0 5.13 0 5.76 -3.7 0 -0.1 -0.51c0.48,-0.29 0.79,-0.51 0.94,-1.15 -0.3,0.24 -0.61,0.45 -0.94,0.64 -1.48,0.79 -2.45,1.09 -4.3,1.11 -4.68,0.07 -8.49,-3.8 -8.49,-8.49 0,-4.69 3.81,-8.49 8.49,-8.49zm-28.8 0c1.84,0 2.63,0.27 4.12,1.15 0.43,0.24 0.83,0.51 1.21,0.81 -0.19,-0.42 -0.58,-0.96 -1.03,-1.18l0.35 -0.69 3.45 0 0 5.91 0 5.13 0 5.76 -3.7 0 -0.1 -0.51c0.48,-0.29 0.79,-0.51 0.94,-1.15 -0.29,0.24 -0.61,0.45 -0.94,0.64 -1.47,0.79 -2.45,1.09 -4.3,1.11 -4.68,0.07 -8.49,-3.8 -8.49,-8.49 0,-4.69 3.81,-8.49 8.49,-8.49zm-3.96 8.49c0,2.19 1.78,3.96 3.96,3.96 2.27,0 4.37,-1.93 4.37,-4.24 0,-2.24 -1.82,-4.06 -4.06,-4.06 -2.28,0 -4.27,2.07 -4.27,4.34zm15.52 -8.4l5.28 0 0 1.7 0 0.5 0.43 -0.01 3.73 -0.02 -1.91 3.32 -1.75 0 -0.5 -1.02 0 1.49 0 0.41 0 10.42 -5.28 0 0 -10.63 0 -0.34 0 -1.28 -0.5 0.92 -1.2 -0.01 0 -3.21 1.7 -0.01 0 -0.53 0 -1.7zm-21.32 8.44c0,-4.64 -3.44,-8.44 -7.65,-8.44 -3.2,0 -6.41,0 -9.62,0l0 16.9 0.28 -0.02 9.34 0c4.21,0 7.65,-3.79 7.65,-8.44zm-12.02 -4.68l0.73 1.45 3.12 0c1.61,0 2.93,1.45 2.93,3.23 0,1.78 -1.32,3.23 -2.93,3.23l-3.06 0.02 -0.89 1.2 0.03 -1.95 0.07 -7.18zm46.62 4.64c0,2.19 1.78,3.96 3.96,3.96 2.27,0 4.37,-1.93 4.37,-4.24 0,-2.24 -1.82,-4.06 -4.06,-4.06 -2.28,0 -4.27,2.07 -4.27,4.34z"/>
   <path class="fill-white" d="M176.83 16.63c1.84,0 2.62,0.28 4.12,1.16 0.42,0.23 0.83,0.51 1.21,0.81 -0.2,-0.43 -0.58,-0.96 -1.03,-1.18l0.35 -0.69 3.44 0 0 5.91 0 5.13 0 5.75 -3.69 0 -0.1 -0.5c0.48,-0.29 0.78,-0.51 0.94,-1.15 -0.3,0.23 -0.61,0.45 -0.94,0.64 -1.48,0.78 -2.45,1.08 -4.3,1.11 -4.69,0.06 -8.49,-3.8 -8.49,-8.49 0,-4.69 3.8,-8.5 8.49,-8.5zm-48.19 -0.24c4.2,0 7.64,3.43 7.64,7.64l0 9.34 -4.71 0 0 -8.82c0,-1.61 -1.32,-2.92 -2.93,-2.92 -1.61,0 -2.92,1.31 -2.92,2.92l0 8.82 -4.72 0 0 -9.34 0 -7.52 3 0 0.32 0.7c-0.71,0.46 -1.31,1.08 -1.31,1.67l0 0c1.4,-1.53 3.41,-2.49 5.63,-2.49zm40.84 17.12l-4.5 0.05 -3.38 -4.53 -0.04 -1.84 -5.09 6.31 -5.92 0.03 7.71 -9.26 -6.36 -7.63 4.34 0.01 5.32 6.75 -0.55 -2.4 3.41 -4.35 5.9 -0.01 -7.27 8.95 6.43 7.92zm-23.81 -17.12c3.09,0 5.79,1.63 7.31,4.08l-0.09 0.08 -3.37 3.38 -4.19 4.19 -1.96 0.02c0.51,0.41 0.89,0.6 1.25,0.68l0 0c0.14,0.04 0.28,0.07 0.43,0.09 0.2,0.04 0.4,0.05 0.62,0.05 0.9,0 1.74,-0.3 2.41,-0.81l1.36 1.39 1.87 1.9c-1.51,1.32 -3.48,2.12 -5.64,2.12 -4.75,0 -8.59,-3.85 -8.59,-8.59 0,-4.74 3.84,-8.58 8.59,-8.58zm2.97 5.15c-1.23,-0.46 -2.31,-0.72 -3.63,-0.5 -1.89,0.31 -3.34,1.95 -3.34,3.93 0,0.48 0.09,0.96 0.26,1.41l4.7 -4.61 2.01 -0.23zm24.23 3.59c0,2.18 1.77,3.96 3.96,3.96 2.27,0 4.36,-1.94 4.36,-4.25 0,-2.24 -1.81,-4.05 -4.06,-4.05 -2.28,0 -4.26,2.07 -4.26,4.34z"/>
  </g>
  <polygon class="fill-white" points="39.31,38.31 32.18,38.38 26.85,31.23 26.78,28.31 18.73,38.29 9.37,38.34 21.55,23.7 11.5,11.63 18.36,11.63 26.78,22.32 25.91,18.52 31.31,11.63 40.63,11.62 29.14,25.78 "/>
 </g>
</svg>
