<?xml version="1.0" encoding="UTF-8"?>
<!DOCTYPE svg PUBLIC "-//W3C//DTD SVG 1.1//EN" "http://www.w3.org/Graphics/SVG/1.1/DTD/svg11.dtd">
<!-- Creator: CorelDRAW 2021 (64 Bit) -->
<svg xmlns="http://www.w3.org/2000/svg" xml:space="preserve" width="50px" height="50px" version="1.1" style="shape-rendering:geometricPrecision; text-rendering:geometricPrecision; image-rendering:optimizeQuality; fill-rule:evenodd; clip-rule:evenodd"
viewBox="0 0 50 50"
 xmlns:xlink="http://www.w3.org/1999/xlink"
 xmlns:xodm="http://www.corel.com/coreldraw/odm/2003">
 <defs>
  <style type="text/css">
   <![CDATA[
    .fil0 {fill:#E6E6E6}
    .fil1 {fill:black;fill-rule:nonzero}
   ]]>
  </style>
 </defs>
 <g id="Camada_x0020_1">
  <metadata id="CorelCorpID_0Corel-Layer"/>
  <circle class="fil0" cx="25" cy="25" r="23.89"/>
  <path class="fil1" d="M25 27.08c3.55,0 6.77,1.44 9.1,3.77 1.56,1.57 2.73,3.54 3.33,5.75l-1.76 0c-0.55,-1.74 -1.51,-3.3 -2.77,-4.56 -2.01,-2.02 -4.82,-3.27 -7.9,-3.27 -3.09,0 -5.88,1.25 -7.9,3.27 -1.26,1.26 -2.22,2.82 -2.77,4.56l-1.75 0c0.59,-2.21 1.75,-4.18 3.32,-5.75 2.33,-2.33 5.55,-3.77 9.1,-3.77zm0 -13.68c1.72,0 3.28,0.7 4.4,1.82 1.12,1.12 1.82,2.68 1.82,4.4 0,1.7 -0.7,3.27 -1.82,4.39 -1.13,1.12 -2.69,1.82 -4.4,1.82 -1.71,0 -3.27,-0.69 -4.4,-1.82 -1.11,-1.11 -1.82,-2.68 -1.82,-4.39 0,-1.72 0.71,-3.27 1.82,-4.4 1.13,-1.12 2.69,-1.82 4.4,-1.82zm3.2 3.02c-0.81,-0.82 -1.95,-1.33 -3.2,-1.33 -1.25,0 -2.39,0.51 -3.2,1.33 -0.81,0.81 -1.33,1.95 -1.33,3.2 0,1.25 0.52,2.38 1.33,3.2 0.82,0.81 1.95,1.32 3.2,1.32 1.25,0 2.39,-0.51 3.2,-1.32 0.82,-0.81 1.33,-1.95 1.33,-3.2 0,-1.25 -0.51,-2.39 -1.33,-3.2z"/>
 </g>
</svg>
