<?xml version="1.0" encoding="UTF-8"?>
<!DOCTYPE svg PUBLIC "-//W3C//DTD SVG 1.1//EN" "http://www.w3.org/Graphics/SVG/1.1/DTD/svg11.dtd">
<!-- Creator: CorelDRAW 2021 (64 Bit) -->
<svg xmlns="http://www.w3.org/2000/svg" xml:space="preserve" width="50px" height="50px" version="1.1" style="shape-rendering:geometricPrecision; text-rendering:geometricPrecision; image-rendering:optimizeQuality; fill-rule:evenodd; clip-rule:evenodd"
viewBox="0 0 50 50"
 xmlns:xlink="http://www.w3.org/1999/xlink"
 xmlns:xodm="http://www.corel.com/coreldraw/odm/2003">
 <defs>
  <style type="text/css">
   <![CDATA[
    .fil0 {fill:#0052ED}
   ]]>
  </style>
 </defs>
 <g id="Camada_x0020_1">
  <metadata id="CorelCorpID_0Corel-Layer"/>
  <g id="_2731990762240">
   <path class="fil0" d="M31.86 35.85l0 -23.58c0,-1.9 2.84,-1.9 2.84,0l0 23.58c0,1.6 -2.84,1.6 -2.84,0zm-18.88 -4.59l3.06 0 0.98 6.44c0,0.85 -0.65,1.42 -1.64,1.42 -1.47,0 -1.43,-2.16 -1.65,-3.48 -0.12,-0.69 -0.23,-1.38 -0.36,-2.15 -0.08,-0.45 -0.28,-1.97 -0.39,-2.23zm6.77 -12.99c3.86,0 6.47,-0.58 9.51,-2.82 0.5,-0.36 0.6,-0.57 0.97,-0.67l0 18.45c-1.46,-0.98 -1.51,-1.43 -3.98,-2.47 -2.36,-0.99 -3.82,-1.13 -6.5,-1.13l0 -11.36zm-9.94 8.84l0 -6.44c0,-1.45 0.82,-2.4 2.3,-2.4l6.11 0 0 11.36 -6.33 0c-1.36,0 -2.08,-1.08 -2.08,-2.52zm-3.71 -3.16c0,-1.76 1.26,-2.35 2.18,-2.84l0 5.68c-1.22,-0.29 -2.18,-1.59 -2.18,-2.84zm-1.53 -0.33c0,1.45 0.21,2.31 1.18,3.41 0.51,0.58 1.69,1.31 2.65,1.4 0.04,0.57 0.64,1.51 1.01,1.82 0.44,0.38 1.22,0.84 1.93,0.9l1 5.88c0.23,1.42 0.36,2.56 1.77,3.36 1.65,0.94 3.79,-0.04 4.35,-1.8 0.43,-1.36 -0.88,-7.3 -0.9,-7.33 1.85,0 3.99,-0.1 5.49,0.19 2.61,0.51 4.81,1.68 6.6,3.44 0.34,0.33 0.5,0.34 0.58,0.85 0.3,1.87 1.25,2.95 3.27,2.95 1.42,0 2.84,-1.4 2.84,-3.06l0 -23.36c0,-3.58 -5.21,-4.21 -6.03,-0.68 -0.27,1.15 0.29,0.45 -0.93,1.69 -4.09,4.13 -9.96,3.47 -15.42,3.47 -2.04,0 -3.93,-0.28 -5.13,1.63l-0.39 0.92c-0.25,0.44 -0.36,0.22 -0.91,0.4 -1.49,0.5 -2.96,2.23 -2.96,3.92z"/>
   <path class="fil0" d="M38.96 33.99c0,0.97 1.03,1 2.08,1.42 0.29,0.12 2.31,0.87 2.51,0.87 0.63,0 1.42,-1.18 -0.07,-1.68 -1.53,-0.51 -3.6,-1.63 -4.25,-1.1 -0.08,0.07 -0.27,0.34 -0.27,0.49z"/>
   <path class="fil0" d="M38.96 13.69c0,0.79 0.45,1.06 1.08,0.87l3.06 -1.1c1.06,-0.38 1.21,-0.43 1.21,-1.19 0,-1.33 -2.93,0.16 -4.13,0.56 -0.39,0.12 -1.22,0.37 -1.22,0.86z"/>
   <path class="fil0" d="M40.05 23.95c0,0.51 0.26,0.76 0.77,0.76l3.82 0c1.05,0 1.05,-1.52 0,-1.52l-3.82 0c-0.51,0 -0.77,0.25 -0.77,0.76z"/>
  </g>
 </g>
</svg>
