<?xml version="1.0" encoding="UTF-8"?>
<!DOCTYPE svg PUBLIC "-//W3C//DTD SVG 1.1//EN" "http://www.w3.org/Graphics/SVG/1.1/DTD/svg11.dtd">
<!-- Creator: CorelDRAW 2021 (64 Bit) -->
<svg xmlns="http://www.w3.org/2000/svg" xml:space="preserve" width="50px" height="50px" version="1.1" style="shape-rendering:geometricPrecision; text-rendering:geometricPrecision; image-rendering:optimizeQuality; fill-rule:evenodd; clip-rule:evenodd"
viewBox="0 0 50 50"
 xmlns:xlink="http://www.w3.org/1999/xlink"
 xmlns:xodm="http://www.corel.com/coreldraw/odm/2003">
 <defs>
  <style type="text/css">
   <![CDATA[
    .fil0 {fill:#0052ED}
   ]]>
  </style>
 </defs>
 <g id="Camada_x0020_1">
  <g id="_2733370496192">
   <path class="fil0" d="M6.87 25.78c0,-3.62 0.28,-5.22 1.7,-8.54 1.45,-3.4 5.26,-7.22 8.67,-8.67 5.41,-2.31 10.12,-2.31 15.52,0 2.64,1.12 5.38,3.61 7.05,5.91 0.32,0.44 0.58,0.86 0.86,1.33 1.37,2.33 2.46,5.63 2.46,8.41 0,3.62 -0.28,5.22 -1.7,8.54 -0.21,0.49 -0.48,0.94 -0.73,1.38 -1.26,2.2 -3.14,4.19 -5.18,5.67 -0.44,0.32 -0.86,0.58 -1.33,0.86 -2.33,1.37 -5.63,2.46 -8.41,2.46 -3.62,0 -5.22,-0.28 -8.54,-1.7 -0.49,-0.21 -0.94,-0.48 -1.38,-0.73 -4.07,-2.33 -7.29,-6.52 -8.43,-11.11 -0.27,-1.11 -0.56,-2.46 -0.56,-3.81zm17.27 -20.78l1.97 0c2.52,0.12 5.02,0.73 7.36,1.84 4.31,2.07 7.69,5.39 9.71,9.75 1.33,2.87 1.82,5.34 1.82,8.96 0,5.17 -2.47,10.25 -5.84,13.61 -1.58,1.59 -3.58,3.02 -5.75,4.02 -2.87,1.33 -5.34,1.82 -8.96,1.82 -7.51,0 -14.53,-4.9 -17.63,-11.59 -1.33,-2.87 -1.82,-5.34 -1.82,-8.96 0,-5.17 2.47,-10.25 5.84,-13.61 3.57,-3.58 8.39,-5.61 13.3,-5.84z"/>
   <path class="fil0" d="M20.47 23.91c0.23,-0.02 2.07,-0.71 2.76,-0.03 0.77,0.77 -0.31,3.62 -0.59,4.62 -0.78,2.77 -2.06,5.95 2.02,6.53 1.13,0.15 2.33,-0.23 3.34,-0.62 0.25,-0.1 0.85,-0.33 1.06,-0.35 0.07,-0.28 0.21,-0.95 0.31,-1.17 -0.59,0.01 -0.19,0.24 -2.1,0.24 -3.14,0 1.65,-7.15 0.36,-9.9 -0.28,-0.61 -0.81,-1.04 -1.44,-1.29 -0.66,-0.26 -1.51,-0.3 -2.35,-0.21 -0.34,0.03 -2.92,0.79 -3.09,1.05 -0.08,0.11 -0.28,0.93 -0.28,1.13z"/>
   <path class="fil0" d="M24.37 17.34c0,0.56 0.42,1.34 0.74,1.61 2.73,2.28 5.94,-1.21 3.78,-3.23 -1.66,-1.56 -4.52,-0.44 -4.52,1.62z"/>
  </g>
 </g>
</svg>
