<?xml version="1.0" encoding="UTF-8"?>
<!DOCTYPE svg PUBLIC "-//W3C//DTD SVG 1.1//EN" "http://www.w3.org/Graphics/SVG/1.1/DTD/svg11.dtd">
<!-- Creator: CorelDRAW 2021 (64 Bit) -->
<svg xmlns="http://www.w3.org/2000/svg" xml:space="preserve" width="15px" height="15px" version="1.1" style="shape-rendering:geometricPrecision; text-rendering:geometricPrecision; image-rendering:optimizeQuality; fill-rule:evenodd; clip-rule:evenodd"
viewBox="0 0 15 15"
 xmlns:xlink="http://www.w3.org/1999/xlink"
 xmlns:xodm="http://www.corel.com/coreldraw/odm/2003">
 <defs>
  <style type="text/css">
   <![CDATA[
    .fil0 {fill:#999999}
   ]]>
  </style>
 </defs>
 <g id="Camada_x0020_1">
  <path class="fil0" d="M9.94 2.87c0,0.37 0.07,0.41 0.09,0.67 -1.47,-0.73 -3.03,-0.84 -4.6,-0.19 -0.29,0.12 -0.58,0.27 -0.82,0.43 -0.41,0.27 -0.68,0.51 -1,0.85 -0.26,0.27 -0.46,0.58 -0.64,0.9 -0.19,0.32 -0.34,0.72 -0.44,1.1 -0.05,0.17 -0.09,0.33 -0.1,0.5 -0.03,0.17 -0.04,0.4 -0.06,0.56 -0.01,0.11 0,0.18 0.01,0.28 0.04,0.24 0,0.28 0.11,0.81 0.19,0.92 0.58,1.51 1.16,2.19 0.06,0.08 0.08,0.1 0.16,0.17 0.92,0.87 2.15,1.5 3.55,1.5 1,0 1.65,-0.13 2.45,-0.5 0.84,-0.4 1.6,-1.02 2.09,-1.78 0.38,-0.59 0.6,-1.12 0.73,-1.83 0.13,-0.74 -1.03,-0.95 -1.2,-0.25 -0.16,0.62 -0.18,0.86 -0.55,1.44 -0.34,0.53 -1.01,1.14 -1.64,1.4 -1.14,0.47 -2.15,0.49 -3.3,0.05 -0.23,-0.09 -0.41,-0.19 -0.61,-0.32 -0.96,-0.6 -1.72,-1.76 -1.72,-2.87 0,-0.86 0.11,-1.45 0.61,-2.19 0.61,-0.9 1.53,-1.45 2.65,-1.64 0.52,-0.1 1.16,-0.07 1.68,0.06 0.19,0.06 0.79,0.25 0.88,0.38 -0.13,0 -0.28,0.03 -0.42,0.05 -0.31,0.06 -0.82,0.05 -0.82,0.67 0,0.27 0.28,0.53 0.56,0.53 0.25,0 1.62,-0.23 1.98,-0.3 0.11,-0.02 0.28,-0.04 0.38,-0.07 0.58,-0.17 0.38,-0.8 0.3,-1.22 -0.05,-0.26 -0.1,-0.49 -0.14,-0.75 -0.02,-0.11 -0.05,-0.27 -0.07,-0.37 -0.09,-0.47 -0.12,-0.77 -0.74,-0.77 -0.18,0 -0.52,0.21 -0.52,0.51z"/>
 </g>
</svg>
