<?xml version="1.0" encoding="UTF-8"?>
<!DOCTYPE svg PUBLIC "-//W3C//DTD SVG 1.1//EN" "http://www.w3.org/Graphics/SVG/1.1/DTD/svg11.dtd">
<!-- Creator: CorelDRAW 2021 (64 Bit) -->
<svg xmlns="http://www.w3.org/2000/svg" xml:space="preserve" width="50px" height="50px" version="1.1" style="shape-rendering:geometricPrecision; text-rendering:geometricPrecision; image-rendering:optimizeQuality; fill-rule:evenodd; clip-rule:evenodd"
viewBox="0 0 50 50"
 xmlns:xlink="http://www.w3.org/1999/xlink"
 xmlns:xodm="http://www.corel.com/coreldraw/odm/2003">
 <defs>
  <style type="text/css">
   <![CDATA[
    .fil1 {fill:black}
    .fil0 {fill:#E6E6E6}
   ]]>
  </style>
 </defs>
 <g id="Camada_x0020_1">
  <metadata id="CorelCorpID_0Corel-Layer"/>
  <circle class="fil0" cx="25" cy="25" r="23.89"/>
  <g id="_2674962247264">
   <path class="fil1" d="M10.88 18.65c1.13,0 3.4,2.14 3.82,2.14 0.58,0 0.39,-0.34 0.47,-0.95 0.18,-1.33 -0.18,-1.43 0.46,-3.62l0.83 -1.9c0.19,-0.3 0.33,-0.52 0.53,-0.82 1.22,-1.85 3.39,-3.3 5.61,-3.85 0.54,-0.13 1.83,-0.33 2.4,-0.33 0.52,0 1.85,0.19 2.34,0.32 1.47,0.36 2.52,0.91 3.67,1.77 2.09,1.55 3.7,4.49 3.77,7.05 0.02,0.45 -0.03,0.88 0.04,1.32 0.09,0.63 -0.11,1.01 0.48,1.01 0.33,0 1.19,-0.81 1.73,-1.12 0.55,-0.33 1.46,-1.02 2.03,-1.02 0.47,0 0.77,0.29 0.86,0.7 0.14,0.64 -0.73,1.28 -1.33,1.75 -0.67,0.54 -2.49,2.62 -3.02,3.39 -0.34,0.5 -0.43,0.42 -0.34,1.16 0.47,3.84 1.46,7.09 2.27,10.56 -0.39,0 -0.64,0.08 -1.02,0.14 -0.95,0.16 -1.66,0.55 -2.21,1.36 -0.39,0.58 -0.47,0.9 -1.15,1.24 -1.21,0.6 -2.59,-0.38 -3.93,0.93 -0.22,0.22 -0.44,0.41 -0.72,0.58 -1.59,0.97 -2.62,-1.03 -4.68,-0.09 -2.74,1.25 -2.6,-1.25 -4.82,-1.25 -0.92,0 -1.93,0.28 -2.73,-0.63 -0.45,-0.5 -0.55,-1.26 -1.78,-1.85 -0.4,-0.2 -1.39,-0.43 -1.96,-0.43 0.79,-3.42 1.82,-6.75 2.26,-10.5 0.09,-0.79 0.1,-0.59 -0.28,-1.14 -0.55,-0.78 -1.54,-1.95 -2.19,-2.6 -0.57,-0.56 -1.04,-1.01 -1.65,-1.52 -0.28,-0.23 -0.63,-0.53 -0.58,-1 0.04,-0.41 0.41,-0.8 0.82,-0.8zm13.61 -10.23l1.02 0c1.41,0.07 2.81,0.42 4.2,1.06 1.02,0.46 2.1,1.29 2.89,2.09 0.96,0.95 1.75,2.08 2.28,3.35 0.55,1.32 0.87,2.6 0.87,4.44 0.19,-0.05 0.23,-0.12 0.4,-0.24l1.15 -0.73c0.25,-0.15 0.53,-0.3 0.78,-0.45 1.91,-1.11 4.04,1.53 1.91,3.2 -0.45,0.35 -0.94,0.88 -1.16,1.05 -0.38,0.29 -0.42,0.45 -0.73,0.75 -0.81,0.81 -1.06,1.19 -1.75,2.08 -0.35,0.45 -0.17,0.74 0,1.78 0.34,2 0.54,3.02 1.03,4.99 0.2,0.77 0.38,1.58 0.59,2.39 0.09,0.38 0.2,0.83 0.29,1.2 0.08,0.3 0.28,0.92 0.28,1.21 0,0.77 -1.99,0.39 -2.9,1.06 -0.56,0.4 -0.55,0.55 -0.91,1.1 -0.25,0.37 -0.61,0.74 -0.99,0.95 -0.99,0.57 -1.49,0.43 -2.43,0.37 -0.95,-0.07 -1.42,0.48 -1.93,0.91 -0.53,0.46 -0.99,0.58 -1.51,0.6l-0.99 0c-0.64,0 -1.05,-0.52 -1.88,-0.52 -0.84,0 -1.24,0.52 -1.88,0.52l-1.16 0c-1.02,0 -1.67,-1.15 -2.54,-1.42 -0.97,-0.3 -1.8,0.36 -3.21,-0.48 -1.71,-1.03 -0.49,-2 -3.4,-2.49 -0.56,-0.1 -1.35,-0.1 -1.35,-0.6l1.17 -4.85c0.17,-0.71 1.28,-5.63 1.22,-6.35 -0.02,-0.17 -0.46,-0.73 -0.59,-0.89 -0.24,-0.29 -0.44,-0.53 -0.68,-0.82l-0.71 -0.77c-0.3,-0.36 -0.38,-0.46 -0.74,-0.75 -0.28,-0.22 -0.68,-0.67 -1.2,-1.07 -1.04,-0.81 -1.04,-2.2 -0.24,-2.91 1.53,-1.34 3.1,0.41 4.55,1.18 0,-3.35 1.32,-5.94 3,-7.62 1.2,-1.2 1.32,-1.24 2.63,-2.04 0.14,-0.09 0.26,-0.15 0.42,-0.22 1.38,-0.64 2.79,-0.99 4.2,-1.06z"/>
   <path class="fil1" d="M23.96 21.5c0,-2.7 2.07,-2.79 2.07,0.07 0,1.4 -1.06,2.93 -1.81,1.23 -0.16,-0.36 -0.26,-0.78 -0.26,-1.3zm0.84 2.98c0.87,0 1.28,-0.28 1.75,-1.1 0.24,-0.42 0.47,-1.36 0.42,-1.98 -0.05,-0.9 -0.17,-1.33 -0.5,-1.95 -0.7,-1.3 -2.24,-1.3 -2.94,0 -1.28,2.35 0.07,5.03 1.27,5.03z"/>
   <path class="fil1" d="M20.66 16.51c0,-0.63 0.32,-1.42 1.04,-1.42 0.75,0 1.25,1.42 0.62,2.37 -0.64,0.95 -1.66,0.07 -1.66,-0.95zm-0.91 -0.26c0,0.73 0.06,1.25 0.48,1.79 1.16,1.54 3.34,0.54 3.34,-1.59 0,-1.71 -1.72,-3.14 -3.1,-1.81l-0.13 0.13c-0.3,0.33 -0.59,0.88 -0.59,1.48z"/>
   <path class="fil1" d="M28.37 17.88c-0.27,0 -0.56,-0.23 -0.69,-0.42 -0.95,-1.41 0.58,-3.26 1.4,-1.92 0.62,1.01 -0.05,2.34 -0.71,2.34zm-1.95 -1.5c0,2.22 2.14,3.17 3.32,1.7 0.7,-0.88 0.71,-2.48 -0.15,-3.37l-0.13 -0.13c-1.34,-1.21 -3.04,0.22 -3.04,1.8z"/>
  </g>
 </g>
</svg>
