<?xml version="1.0" encoding="UTF-8"?>
<!DOCTYPE svg PUBLIC "-//W3C//DTD SVG 1.1//EN" "http://www.w3.org/Graphics/SVG/1.1/DTD/svg11.dtd">
<!-- Creator: CorelDRAW 2021 (64 Bit) -->
<svg xmlns="http://www.w3.org/2000/svg" xml:space="preserve" width="30px" height="30px" version="1.1" style="shape-rendering:geometricPrecision; text-rendering:geometricPrecision; image-rendering:optimizeQuality; fill-rule:evenodd; clip-rule:evenodd"
viewBox="0 0 30 30"
 xmlns:xlink="http://www.w3.org/1999/xlink">
 <g id="Camada_x0020_1">
  <path class="fill-dark" d="M11.33 16.08c0.32,0.21 0.96,1.02 1.42,1.36 1.14,0.85 2.84,1.02 4.05,0.3 0.18,-0.11 0.28,-0.19 0.44,-0.3 0.5,-0.34 0.97,-1.05 1.43,-1.36l6.32 6.27 -19.98 0 5.5 -5.48c0.21,-0.21 0.6,-0.65 0.82,-0.79zm8.42 -1.08c0.15,-0.22 0.56,-0.58 0.77,-0.8l0.59 -0.58c0.1,-0.09 0.12,-0.09 0.22,-0.18 0.59,-0.52 2.43,-2.42 3.14,-3.13 0.27,-0.27 0.51,-0.51 0.78,-0.78 0.21,-0.22 0.6,-0.66 0.82,-0.8l0 12.54c-0.21,-0.14 -2.89,-2.87 -3.15,-3.12 -0.14,-0.14 -0.25,-0.26 -0.39,-0.4 -0.54,-0.49 -2.52,-2.36 -2.78,-2.75zm-15.82 6.27l0 -12.54 1.58 1.56c0.89,0.88 2.29,2.35 3.14,3.13 0.44,0.41 1.32,1.16 1.6,1.58 -0.15,0.22 -0.56,0.58 -0.77,0.8 -0.69,0.69 -1.26,1.3 -1.98,1.93l-1.97 1.96c-0.27,0.27 -0.51,0.51 -0.78,0.78 -0.21,0.22 -0.6,0.66 -0.82,0.8zm1.08 -13.62l19.98 0c-0.23,0.35 -3.03,3.01 -3.56,3.54l-4.78 4.78c-0.19,0.2 -0.41,0.37 -0.67,0.5 -1.72,0.84 -2.75,-0.62 -3.81,-1.68l-4.46 -4.41c-0.42,-0.42 -2.56,-2.52 -2.7,-2.73zm-2.55 0.59l0 13.52c0,1.02 1.04,2.06 2.06,2.06l20.96 0c1.02,0 2.06,-1.04 2.06,-2.06l0 -13.52c0,-1.02 -1.03,-2.06 -2.06,-2.06l-20.96 0c-1.02,0 -2.06,1.04 -2.06,2.06z"/>
 </g>
</svg>
