<?xml version="1.0" encoding="UTF-8"?>
<!DOCTYPE svg PUBLIC "-//W3C//DTD SVG 1.1//EN" "http://www.w3.org/Graphics/SVG/1.1/DTD/svg11.dtd">
<!-- Creator: CorelDRAW 2020 (64 Bit) -->
<svg xmlns="http://www.w3.org/2000/svg" xml:space="preserve" width="50px" height="50px" version="1.1" style="shape-rendering:geometricPrecision; text-rendering:geometricPrecision; image-rendering:optimizeQuality; fill-rule:evenodd; clip-rule:evenodd"
viewBox="0 0 50 50"
 xmlns:xlink="http://www.w3.org/1999/xlink"
 xmlns:xodm="http://www.corel.com/coreldraw/odm/2003">
 <defs>
  <style type="text/css">
   <![CDATA[
    .fil0 {fill:black;fill-rule:nonzero}
   ]]>
  </style>
 </defs>
 <g id="Camada_x0020_1">
  <path class="fil0" d="M19.21 7.03c3.5,0 6.66,1.42 8.95,3.71 2.29,2.29 3.71,5.46 3.71,8.95 0,2.44 -0.69,4.72 -1.88,6.65 3.5,3.76 7,7.53 10.5,11.28 0.65,0.7 0.96,1.61 0.93,2.5 -0.04,0.88 -0.4,1.75 -1.09,2.4l-0.02 0.02c-0.69,0.65 -1.6,0.95 -2.49,0.92 -0.89,-0.03 -1.77,-0.4 -2.42,-1.1l-10.54 -11.33c-1.7,0.85 -3.62,1.32 -5.65,1.32 -3.49,0 -6.66,-1.41 -8.95,-3.71 -2.29,-2.29 -3.71,-5.45 -3.71,-8.95 0,-3.49 1.42,-6.66 3.71,-8.95 2.29,-2.29 5.46,-3.71 8.95,-3.71zm9.8 26.38l2.91 -2.91 -2.7 -2.88c-0.82,0.99 -1.86,1.93 -3.03,2.8l2.82 2.99zm3.88 -1.88l-2.92 2.92 6.47 6.95c0.38,0.41 0.91,0.63 1.43,0.65 0.52,0.02 1.05,-0.16 1.46,-0.53l0.02 -0.02c0.42,-0.38 0.64,-0.91 0.66,-1.43 0.01,-0.52 -0.16,-1.05 -0.54,-1.46l-6.58 -7.08zm-5.73 -19.79c-2.03,-2.03 -4.84,-3.29 -7.95,-3.29 -3.1,0 -5.91,1.26 -7.95,3.29 -2.03,2.04 -3.29,4.85 -3.29,7.95 0,3.11 1.26,5.92 3.29,7.95 2.04,2.04 4.85,3.3 7.95,3.3 3.11,0 5.92,-1.26 7.95,-3.3 2.04,-2.03 3.29,-4.84 3.29,-7.95 0,-3.1 -1.25,-5.91 -3.29,-7.95z"/>
  <path class="fil0" d="M9.8 22.16l2.75 -1.05c0,-0.04 0,-0.07 0,-0.1 0,-0.56 0.23,-1.07 0.59,-1.43 0.37,-0.37 0.88,-0.59 1.44,-0.59 0.55,0 1.06,0.22 1.42,0.59l0.01 0c0.3,0.3 0.5,0.7 0.57,1.14l2.61 0.53c0.09,-0.17 0.21,-0.32 0.35,-0.46 0.36,-0.37 0.87,-0.59 1.43,-0.59 0.11,0 0.23,0.01 0.34,0.03l1.66 -3.22 -0.01 -0.01 0 -0.01c-0.36,-0.36 -0.59,-0.87 -0.59,-1.42 0,-0.56 0.23,-1.07 0.59,-1.44 0.37,-0.36 0.87,-0.59 1.43,-0.59 0.56,0 1.06,0.23 1.43,0.59l0 0c0.36,0.36 0.59,0.85 0.6,1.39l1.94 0.53 0.36 1.56 -2.78 -0.75c-0.04,0.05 -0.08,0.09 -0.12,0.13l0 0.01c-0.37,0.36 -0.87,0.59 -1.43,0.59 -0.04,0 -0.08,0 -0.13,-0.01l-1.73 3.36c0.29,0.35 0.46,0.8 0.46,1.28 0,0.56 -0.23,1.06 -0.59,1.43l-0.01 0c-0.36,0.37 -0.87,0.59 -1.42,0.59 -0.56,0 -1.07,-0.22 -1.43,-0.59l0 0c-0.27,-0.27 -0.47,-0.61 -0.55,-1l-2.71 -0.55c-0.08,0.12 -0.17,0.23 -0.27,0.34l-0.01 0c-0.36,0.37 -0.87,0.59 -1.42,0.59 -0.56,0 -1.07,-0.22 -1.44,-0.59l0 0 -0.03 -0.04 -2.9 1.2 -0.41 -1.44zm5.21 -1.58c-0.11,-0.11 -0.26,-0.18 -0.43,-0.18 -0.17,0 -0.32,0.07 -0.43,0.18 -0.11,0.11 -0.18,0.26 -0.18,0.43 0,0.17 0.07,0.32 0.18,0.43 0.11,0.11 0.26,0.17 0.43,0.17 0.17,0 0.32,-0.06 0.43,-0.17 0.1,-0.11 0.17,-0.26 0.17,-0.43 0,-0.17 -0.07,-0.32 -0.17,-0.43zm9.81 -5.44c-0.11,-0.11 -0.26,-0.18 -0.43,-0.18 -0.16,0 -0.32,0.07 -0.43,0.18 -0.11,0.1 -0.17,0.26 -0.17,0.43 0,0.16 0.06,0.32 0.17,0.42 0.11,0.11 0.27,0.18 0.43,0.18 0.17,0 0.32,-0.07 0.43,-0.18 0.11,-0.1 0.18,-0.26 0.18,-0.42 0,-0.17 -0.07,-0.33 -0.18,-0.43zm-3.42 6.65c-0.11,-0.11 -0.26,-0.18 -0.43,-0.18 -0.17,0 -0.32,0.07 -0.43,0.18 -0.11,0.11 -0.18,0.26 -0.18,0.43 0,0.17 0.07,0.32 0.18,0.43 0.11,0.11 0.26,0.18 0.43,0.18 0.17,0 0.32,-0.07 0.43,-0.18 0.11,-0.11 0.17,-0.26 0.17,-0.43 0,-0.17 -0.07,-0.32 -0.17,-0.43z"/>
 </g>
</svg>
