<?xml version="1.0" encoding="UTF-8"?>
<!DOCTYPE svg PUBLIC "-//W3C//DTD SVG 1.1//EN" "http://www.w3.org/Graphics/SVG/1.1/DTD/svg11.dtd">
<!-- Creator: CorelDRAW 2020 (64 Bit) -->
<svg xmlns="http://www.w3.org/2000/svg" xml:space="preserve" width="90px" height="90px" version="1.1" style="shape-rendering:geometricPrecision; text-rendering:geometricPrecision; image-rendering:optimizeQuality; fill-rule:evenodd; clip-rule:evenodd"
viewBox="0 0 90 90"
 xmlns:xlink="http://www.w3.org/1999/xlink">
 <defs>
  <style type="text/css">
   <![CDATA[
    .fil0 {fill:#0052EC}
    .fil1 {fill:#C1D9FF}
    .fil2 {fill:white}
   ]]>
  </style>
 </defs>
 <g id="Camada_x0020_1">
  <circle class="fil0" cx="45" cy="40.21" r="36.91"/>
  <path class="fil1" d="M45 16.71c5.9,0 10.68,4.77 10.68,10.67 0,5.9 -4.78,10.68 -10.68,10.68 -5.9,0 -10.68,-4.78 -10.68,-10.68 0,-5.9 4.78,-10.67 10.68,-10.67zm-19.58 43.64c-0.05,-11.25 7.18,-22.22 19.58,-21.8 13.73,0 19.98,8.79 19.93,21.8 -5.46,5.54 -11.94,8.04 -19.22,8.19l-1.07 0c-7.28,-0.15 -13.76,-2.65 -19.22,-8.19z"/>
  <circle class="fil2" cx="45.17" cy="72.86" r="13.83"/>
  <g id="_1880334191536">
   <path class="fil0" d="M51.55 68.68l-0.02 0.07c-0.07,0.03 -0.01,0.01 -0.07,0.02 -0.06,0.06 -0.07,0.06 -0.12,0.1 -0.05,0.05 -0.04,0.05 -0.09,0.09l-1.04 0.9c-0.29,0.29 -0.98,0.83 -1.25,1.09l-2.3 2.01c-0.01,0.01 -0.03,0.03 -0.03,0.04 0,0 -0.06,0.05 -0.06,0.05l-0.32 0.26c-0.2,0.19 -1.37,1.22 -1.51,1.29l-0.01 0.07 -0.08 0.03c-0.08,0.08 -0.1,0.09 -0.18,0.17l-0.42 0.37c-0.01,0.01 -0.03,0.03 -0.04,0.04 -0.04,0.03 -0.07,0.04 -0.11,0.07l-0.55 0.49c-0.08,0.07 -0.11,0.11 -0.19,0.18 -0.29,0.22 -0.84,0.74 -1.1,0.95 -0.14,0.1 -0.29,0.23 -0.38,0.38 0.02,-0.08 0.01,0.01 -0.03,-0.04l-0.13 0.12 0.01 -0.03 -0.13 -0.15c-0.01,-0.01 -0.01,-0.02 -0.02,-0.02l-0.89 -1.24c-0.01,0 -0.02,-0.03 -0.03,-0.04 -0.02,-0.04 -0.03,-0.05 -0.06,-0.09l-0.21 -0.28c0,0 -0.01,-0.01 -0.01,-0.02l-0.15 -0.21c-0.04,-0.05 -0.04,-0.07 -0.08,-0.12 -0.01,-0.01 -0.05,-0.06 -0.05,-0.06l-0.3 -0.41c-0.01,-0.01 -0.03,-0.03 -0.03,-0.04l-0.66 -0.92c-0.06,-0.08 -0.11,-0.16 -0.17,-0.23l-0.03 -0.04c-0.43,-0.55 -0.8,-1.37 -1.85,-1.2 -0.13,0.01 -0.2,0.03 -0.33,0.07 -0.06,0.02 -0.09,0.03 -0.14,0.06 -0.07,0.03 -0.01,0.01 -0.06,0.04 -0.25,0.13 -0.43,0.27 -0.57,0.48 -0.37,0.55 -0.29,1.16 -0.02,1.71 0.09,0.16 0.21,0.23 0.3,0.38 0.21,0.36 2.63,3.64 2.87,3.97 0.24,0.33 1.03,1.52 1.31,1.78 0.56,0.52 1.43,0.53 1.99,0.12 0.11,-0.09 0.14,-0.14 0.25,-0.22 0.07,-0.05 0.06,-0.05 0.12,-0.1l0.36 -0.31c0.07,-0.06 0.05,-0.06 0.11,-0.11l1.06 -0.92c0.52,-0.45 1.02,-0.92 1.56,-1.35l2.77 -2.42c0.43,-0.32 0.77,-0.73 1.21,-1.06 0.38,-0.28 1.84,-1.59 2.25,-1.94 0.07,-0.06 0.07,-0.07 0.13,-0.13l1.2 -1.03c0.53,-0.54 1.3,-0.96 1.54,-1.66l0.07 -0.44c0,-0.12 -0.02,-0.25 -0.05,-0.38 -0.14,-0.6 -0.58,-1 -1.1,-1.12l-0.23 -0.04c-0.38,-0.03 -0.79,0.07 -1.15,0.33 -0.28,0.2 -0.46,0.48 -0.76,0.64z"/>
   <path class="fil0" d="M51.46 68.77c0.06,-0.01 0,0.01 0.07,-0.02l0.02 -0.07c-0.04,0.05 -0.04,0.06 -0.09,0.09z"/>
   <path class="fil0" d="M44.65 74.7l0.08 -0.03 0.01 -0.07c-0.03,0.06 -0.04,0.07 -0.09,0.1z"/>
   <path class="fil0" d="M41.53 77.4l-0.01 0.03 0.13 -0.12c0.04,0.05 0.05,-0.04 0.03,0.04 -0.07,-0.01 0,-0.02 -0.08,0.01 -0.08,0.04 0.02,0.01 -0.07,0.04z"/>
  </g>
 </g>
</svg>
