<?xml version="1.0" encoding="UTF-8"?>
<!DOCTYPE svg PUBLIC "-//W3C//DTD SVG 1.1//EN" "http://www.w3.org/Graphics/SVG/1.1/DTD/svg11.dtd">
<!-- Creator: CorelDRAW 2020 (64 Bit) -->
<svg xmlns="http://www.w3.org/2000/svg" xml:space="preserve" width="50px" height="50px" version="1.1" style="shape-rendering:geometricPrecision; text-rendering:geometricPrecision; image-rendering:optimizeQuality; fill-rule:evenodd; clip-rule:evenodd"
viewBox="0 0 50 50"
 xmlns:xlink="http://www.w3.org/1999/xlink"
 xmlns:xodm="http://www.corel.com/coreldraw/odm/2003">
 <defs>
  <style type="text/css">
   <![CDATA[
    .fil0 {fill:black;fill-rule:nonzero}
   ]]>
  </style>
 </defs>
 <g id="Camada_x0020_1">
  <metadata id="CorelCorpID_0Corel-Layer"/>
  <path class="fil0" d="M25.21 7.38c2.36,0 4.49,0.95 6.03,2.49 1.54,1.54 2.5,3.68 2.5,6.03 0,2.35 -0.96,4.48 -2.5,6.02 -1.54,1.55 -3.67,2.5 -6.03,2.5 -2.35,0 -4.48,-0.95 -6.02,-2.5 -1.55,-1.54 -2.5,-3.67 -2.5,-6.02 0,-2.35 0.95,-4.49 2.5,-6.03 1.54,-1.54 3.67,-2.49 6.02,-2.49zm4.87 25.21c-0.18,0.18 -0.34,0.35 -0.34,0.38 0,0.03 0.13,0.15 0.21,0.26 0.16,0.22 0.31,0.45 0.47,0.67 0.16,0.23 0.28,0.39 0.08,0.74 -0.05,0.09 -0.1,0.17 -0.14,0.25 -0.04,0.08 -0.07,0.16 -0.11,0.25 -0.07,0.19 -0.11,0.33 -0.15,0.43 -0.14,0.46 -0.15,0.5 -0.79,0.61 -0.18,0.03 -0.33,0.06 -0.49,0.09l-0.21 0.04 -0.14 0.02c-0.08,0.01 -0.13,0.02 -0.13,0.03l-0.01 0.48c0,0.29 -0.01,0.44 0.01,0.5 0.01,0.01 0.07,0 0.21,0.02l0.48 0.08c0.45,0.07 0.66,0.1 0.81,0.21 0.16,0.11 0.2,0.24 0.27,0.47 0.04,0.11 0.08,0.25 0.15,0.43 0.09,0.21 0.16,0.34 0.22,0.43 0.2,0.35 0.21,0.37 -0.13,0.89 -0.16,0.24 -0.3,0.43 -0.4,0.57 -0.13,0.17 -0.2,0.27 -0.2,0.3 -0.01,0.01 0.06,0.05 0.19,0.18l0.3 0.3c0.13,0.13 0.16,0.2 0.18,0.2 0.03,-0.01 0.14,-0.08 0.32,-0.22 0.15,-0.11 0.35,-0.25 0.57,-0.4l0.08 -0.06c0.23,-0.16 0.39,-0.28 0.74,-0.08 0.43,0.25 0.71,0.33 0.9,0.38 0.43,0.13 0.53,0.16 0.64,0.81 0.03,0.2 0.14,0.62 0.14,0.81 0.01,0.08 0.02,0.17 0.05,0.17l0.45 0c0.32,0 0.48,0.01 0.53,-0.02 0.03,-0.01 -0.03,-0.02 -0.01,-0.1l0.09 -0.54 0.08 -0.44c0.05,-0.32 0.07,-0.49 0.46,-0.63l0.21 -0.07c0.13,-0.04 0.26,-0.09 0.37,-0.13 0.21,-0.08 0.34,-0.16 0.43,-0.21 0.35,-0.21 0.37,-0.22 0.88,0.12 0.25,0.17 0.44,0.3 0.58,0.4 0.17,0.13 0.27,0.2 0.3,0.21 0.01,0 0.05,-0.07 0.18,-0.2 0.17,-0.17 0.33,-0.33 0.5,-0.49 0,-0.01 -0.05,-0.05 -0.13,-0.16l-0.15 -0.23c-0.07,-0.1 -0.15,-0.2 -0.21,-0.29 -0.28,-0.38 -0.48,-0.65 -0.27,-1.02 0.25,-0.43 0.33,-0.71 0.38,-0.9 0.12,-0.43 0.15,-0.53 0.81,-0.64 0.18,-0.03 0.34,-0.06 0.5,-0.09l0.2 -0.04 0.14 -0.02c0.08,-0.01 0.13,-0.02 0.13,-0.03l0.01 -0.46c0,-0.32 0,-0.48 -0.01,-0.53 -0.02,-0.03 -0.03,0.03 -0.12,0.01l-0.18 -0.03c-0.26,-0.05 -0.44,-0.08 -0.59,-0.1 -0.32,-0.05 -0.48,-0.08 -0.61,-0.18 -0.15,-0.1 -0.19,-0.22 -0.26,-0.45 -0.03,-0.11 -0.08,-0.25 -0.16,-0.45 -0.09,-0.23 -0.17,-0.36 -0.22,-0.45 -0.09,-0.16 -0.14,-0.25 -0.12,-0.4 0.02,-0.14 0.1,-0.25 0.27,-0.49 0.08,-0.12 0.19,-0.27 0.32,-0.47 0.06,-0.09 0.12,-0.17 0.17,-0.23 0.06,-0.1 0.1,-0.11 0.1,-0.13 -0.23,-0.23 -0.46,-0.46 -0.69,-0.7 -0.01,0 -0.05,0.05 -0.16,0.13l-0.8 0.55c-0.23,0.16 -0.39,0.28 -0.74,0.08 -0.43,-0.25 -0.71,-0.33 -0.9,-0.38 -0.43,-0.13 -0.53,-0.16 -0.64,-0.81 -0.05,-0.27 -0.1,-0.54 -0.14,-0.8 -0.01,-0.09 -0.02,-0.18 -0.05,-0.18l-0.47 0c-0.28,-0.01 -0.44,-0.01 -0.5,0.02 -0.01,0 0,0.06 -0.02,0.2l-0.14 0.79c-0.1,0.61 -0.14,0.62 -0.6,0.76 -0.11,0.04 -0.26,0.08 -0.45,0.16 -0.21,0.08 -0.34,0.16 -0.43,0.22 -0.35,0.2 -0.37,0.21 -0.89,-0.13l-0.18 -0.13c-0.25,-0.18 -0.62,-0.48 -0.65,-0.48 -0.03,0 -0.2,0.16 -0.38,0.34zm2.27 3.21c-0.16,0.29 -0.26,0.63 -0.26,1 0,0.64 0.25,1.2 0.66,1.61 0.4,0.41 0.97,0.66 1.61,0.66 0.43,0 0.85,-0.14 1.19,-0.38 0.37,-0.24 0.66,-0.57 0.81,-0.95 0.24,-0.59 0.24,-1.15 0.08,-1.63 -0.14,-0.4 -0.39,-0.75 -0.72,-1.01 -0.32,-0.26 -0.72,-0.43 -1.13,-0.48 -0.5,-0.06 -1.04,0.04 -1.52,0.37 -0.28,0.2 -0.54,0.47 -0.72,0.81zm-1.08 2.2c-0.15,-0.4 -0.2,-0.84 -0.2,-1.34 0,-0.29 0.06,-0.56 0.14,-0.81 0.08,-0.25 0.19,-0.47 0.3,-0.68 0.14,-0.26 0.35,-0.5 0.57,-0.71 0.25,-0.23 0.54,-0.42 0.83,-0.56 0.61,-0.31 1.29,-0.4 1.95,-0.28 0.65,0.11 1.28,0.42 1.77,0.91 0.49,0.49 0.8,1.12 0.91,1.77 0.11,0.66 0.03,1.34 -0.28,1.95 -0.12,0.25 -0.28,0.5 -0.47,0.72 -0.17,0.21 -0.37,0.39 -0.59,0.53l-0.22 0.14c-0.07,0.05 -0.14,0.09 -0.24,0.13 -0.61,0.31 -1.29,0.4 -1.95,0.28 -0.65,-0.11 -1.28,-0.42 -1.77,-0.91 -0.37,-0.37 -0.61,-0.74 -0.75,-1.14zm0.9 -6.17c0.15,-0.07 0.28,-0.13 0.47,-0.18 0.01,-0.09 0.03,-0.17 0.05,-0.26l0.05 -0.29c0.08,-0.53 0.19,-1.27 1.01,-1.27 0.17,0 0.3,-0.01 0.42,-0.01 0.86,-0.03 1.51,-0.05 1.67,0.87l0.16 0.96 0.13 0.04c0.11,0.04 0.22,0.08 0.31,0.12l0.1 0.04c0.05,0.02 0.1,0.04 0.16,0.07l0.11 0.06 0.2 -0.15c0.08,-0.05 0.16,-0.1 0.23,-0.16 0.51,-0.37 1.06,-0.78 1.68,-0.15l0.37 0.37c0.83,0.8 0.96,0.93 0.25,1.96l-0.36 0.51c0.13,0.27 0.25,0.5 0.34,0.8l0.99 0.17c0.23,0.05 0.44,0.16 0.59,0.32 0.15,0.16 0.24,0.37 0.24,0.61l0 0.44c0.01,1.46 0.01,1.47 -1.42,1.74l-0.13 0.03c-0.09,0.02 -0.18,0.04 -0.28,0.05 -0.09,0.3 -0.2,0.53 -0.33,0.79l0.29 0.42c0.81,1.08 0.62,1.26 -0.09,1.97l-0.22 0.22c-0.32,0.35 -0.69,0.75 -1.35,0.45 -0.24,-0.11 -0.77,-0.52 -1.01,-0.69l-0.38 0.19c-0.07,0.03 -0.18,0.07 -0.29,0.11l-0.12 0.04c-0.01,0.09 -0.03,0.19 -0.05,0.29l-0.03 0.14 -0.03 0.15c-0.07,0.52 -0.18,1.25 -1,1.25 -0.15,0 -0.26,0 -0.37,0 -0.57,0.02 -1.12,0.04 -1.44,-0.29 -0.12,-0.12 -0.22,-0.38 -0.29,-0.67 -0.08,-0.3 -0.13,-0.65 -0.16,-0.87 -0.08,-0.02 -0.16,-0.05 -0.24,-0.08 -0.15,-0.06 -0.3,-0.13 -0.45,-0.2l-0.1 -0.05 -0.21 0.15c-0.12,0.07 -0.21,0.14 -0.31,0.21 -0.43,0.32 -0.75,0.56 -1.32,0.32 -0.17,-0.08 -0.67,-0.59 -0.93,-0.86l-0.11 -0.12c-0.59,-0.59 -0.16,-1.17 0.21,-1.66 0.05,-0.08 0.11,-0.15 0.16,-0.23l0.13 -0.19c-0.13,-0.26 -0.24,-0.49 -0.33,-0.79 -0.09,-0.01 -0.17,-0.03 -0.26,-0.05l-0.17 -0.03c-1.42,-0.23 -1.41,-0.36 -1.4,-1.71l0.01 -0.47c0,-0.25 0.09,-0.46 0.24,-0.62 0.16,-0.17 0.38,-0.27 0.62,-0.32l0.96 -0.16c0.06,-0.22 0.15,-0.41 0.24,-0.63l0.09 -0.18 -0.15 -0.2c-0.04,-0.08 -0.1,-0.15 -0.16,-0.23 -0.37,-0.51 -0.78,-1.07 -0.15,-1.68 0.1,-0.1 0.2,-0.21 0.29,-0.31 0.55,-0.58 0.97,-1.03 1.72,-0.53 0.26,0.14 0.57,0.41 0.83,0.58 0.04,-0.02 0.09,-0.05 0.14,-0.07l0.18 -0.08zm-7.17 -7.03c4.46,0 8.53,1.64 11.64,4.36l-3.69 0c-2.32,-1.39 -5.04,-2.18 -7.95,-2.18 -4.28,0 -8.14,1.72 -10.94,4.5 -2.79,2.78 -4.52,6.62 -4.52,10.86l-2.18 0c0,-4.84 1.97,-9.23 5.17,-12.41 3.19,-3.17 7.6,-5.13 12.47,-5.13zm4.7 -13.39c-1.15,-1.15 -2.74,-1.85 -4.49,-1.85 -1.75,0 -3.34,0.7 -4.48,1.85 -1.15,1.15 -1.86,2.74 -1.86,4.49 0,1.75 0.71,3.34 1.86,4.48 1.14,1.15 2.73,1.86 4.48,1.86 1.75,0 3.34,-0.71 4.49,-1.86 1.14,-1.14 1.86,-2.73 1.86,-4.48 0,-1.75 -0.72,-3.34 -1.86,-4.49z"/>
 </g>
</svg>
