<?xml version="1.0" encoding="UTF-8"?>
<!DOCTYPE svg PUBLIC "-//W3C//DTD SVG 1.1//EN" "http://www.w3.org/Graphics/SVG/1.1/DTD/svg11.dtd">
<!-- Creator: CorelDRAW 2020 (64 Bit) -->
<svg xmlns="http://www.w3.org/2000/svg" xml:space="preserve" width="90px" height="90px" version="1.1" style="shape-rendering:geometricPrecision; text-rendering:geometricPrecision; image-rendering:optimizeQuality; fill-rule:evenodd; clip-rule:evenodd"
viewBox="0 0 90 90"
 xmlns:xlink="http://www.w3.org/1999/xlink">
 <defs>
  <style type="text/css">
   <![CDATA[
    .fil0 {fill:#0052EC}
    .fil1 {fill:#C1D9FF}
    .fil2 {fill:white}
   ]]>
  </style>
 </defs>
 <g id="Camada_x0020_1">
  <circle class="fil0" cx="45" cy="40.21" r="36.91"/>
  <path class="fil1" d="M45 16.71c5.9,0 10.68,4.77 10.68,10.67 0,5.9 -4.78,10.68 -10.68,10.68 -5.9,0 -10.68,-4.78 -10.68,-10.68 0,-5.9 4.78,-10.67 10.68,-10.67zm-19.58 43.64c-0.05,-11.25 7.18,-22.22 19.58,-21.8 13.73,0 19.98,8.79 19.93,21.8 -5.46,5.54 -11.94,8.04 -19.22,8.19l-1.07 0c-7.28,-0.15 -13.76,-2.65 -19.22,-8.19z"/>
  <circle class="fil2" cx="45.17" cy="72.86" r="13.83"/>
  <path class="fil0" d="M45 66.22l0 0c1.01,0 1.83,0.82 1.83,1.83l0 3.66 3.66 0c1.01,0 1.83,0.82 1.83,1.83l0 0c0,1.01 -0.82,1.83 -1.83,1.83l-3.66 0 0 3.66c0,1.01 -0.82,1.83 -1.83,1.83l0 0c-1.01,0 -1.83,-0.82 -1.83,-1.83l0 -3.66 -3.66 0c-1.01,0 -1.83,-0.82 -1.83,-1.83l0 0c0,-1.01 0.82,-1.83 1.83,-1.83l3.66 0 0 -3.66c0,-1.01 0.82,-1.83 1.83,-1.83z"/>
  <path class="fil0" d="M45.17 63.33l0 0c1.32,0 2.39,1.07 2.39,2.38l0 4.77 4.77 0c1.31,0 2.38,1.07 2.38,2.38l0 0c0,1.32 -1.07,2.39 -2.38,2.39l-4.77 0 0 4.76c0,1.32 -1.07,2.39 -2.39,2.39l0 0c-1.31,0 -2.38,-1.07 -2.38,-2.39l0 -4.76 -4.77 0c-1.31,0 -2.38,-1.07 -2.38,-2.39l0 0c0,-1.31 1.07,-2.38 2.38,-2.38l4.77 0 0 -4.77c0,-1.31 1.07,-2.38 2.38,-2.38z"/>
 </g>
</svg>
