<?xml version="1.0" encoding="UTF-8"?>
<!DOCTYPE svg PUBLIC "-//W3C//DTD SVG 1.1//EN" "http://www.w3.org/Graphics/SVG/1.1/DTD/svg11.dtd">
<!-- Creator: CorelDRAW 2020 (64 Bit) -->
<svg xmlns="http://www.w3.org/2000/svg" xml:space="preserve" width="90px" height="90px" version="1.1" style="shape-rendering:geometricPrecision; text-rendering:geometricPrecision; image-rendering:optimizeQuality; fill-rule:evenodd; clip-rule:evenodd"
viewBox="0 0 90 90"
 xmlns:xlink="http://www.w3.org/1999/xlink">
 <defs>
  <style type="text/css">
   <![CDATA[
    .fil0 {fill:#0052EC}
    .fil1 {fill:#C1D9FF}
    .fil2 {fill:white}
    .fil3 {fill:#0052EC;fill-rule:nonzero}
   ]]>
  </style>
 </defs>
 <g id="Camada_x0020_1">
  <circle class="fil0" cx="45" cy="40.21" r="36.91"/>
  <path class="fil1" d="M45 16.71c5.9,0 10.68,4.77 10.68,10.67 0,5.9 -4.78,10.68 -10.68,10.68 -5.9,0 -10.68,-4.78 -10.68,-10.68 0,-5.9 4.78,-10.67 10.68,-10.67zm-19.58 43.64c-0.05,-11.25 7.18,-22.22 19.58,-21.8 13.73,0 19.98,8.79 19.93,21.8 -5.46,5.54 -11.94,8.04 -19.22,8.19l-1.07 0c-7.28,-0.15 -13.76,-2.65 -19.22,-8.19z"/>
  <circle class="fil2" cx="45" cy="72.86" r="13.83"/>
  <path class="fil3" d="M42.16 77.99l0 -5.13 -2.83 0 5.67 -10.25 5.67 10.25 -2.83 0 0 5.13 -5.68 0zm0 3.08l0 -2.05 5.68 0 0 2.05 -5.68 0zm0 2.05l0 -1.03 5.68 0 0 1.03 -5.68 0zm0 -7.69m-1.41 -2.57m1.42 -5.13m5.67 0m1.42 5.13m-1.42 2.57m-2.84 2.56m-2.84 2.05m2.84 -1.02m2.84 1.02m-2.84 1.03m-2.84 1.54m2.84 -0.52m2.84 0.52m-2.84 0.51"/>
 </g>
</svg>
